<svg width="512" height="512" viewBox="0 0 512 512" fill="none" xmlns="http://www.w3.org/2000/svg">
<rect width="512" height="512" rx="116" fill="white"/>
<g style="mix-blend-mode:multiply" filter="url(#filter0_di_33_103)">
<path d="M313.7 279.9C345.567 311.767 345.567 363.433 313.7 395.3L268.305 440.695C261.509 447.491 250.491 447.491 243.695 440.695L198.3 395.3C166.433 363.433 166.433 311.767 198.3 279.9C230.167 248.033 281.833 248.033 313.7 279.9Z" fill="#0088FF"/>
</g>
<g style="mix-blend-mode:multiply" filter="url(#filter1_di_33_103)">
<path d="M198.3 232.1C166.433 200.233 166.433 148.567 198.3 116.7L243.695 71.3049C250.491 64.5091 261.509 64.5091 268.305 71.3049L313.7 116.7C345.567 148.567 345.567 200.233 313.7 232.1C281.833 263.967 230.167 263.967 198.3 232.1Z" fill="#FFA800"/>
</g>
<g style="mix-blend-mode:multiply" filter="url(#filter2_di_33_103)">
<path d="M232.1 313.7C200.233 345.567 148.567 345.567 116.7 313.7L71.3049 268.305C64.5091 261.509 64.5091 250.491 71.3049 243.695L116.7 198.3C148.567 166.433 200.233 166.433 232.1 198.3C263.967 230.167 263.967 281.833 232.1 313.7Z" fill="#EB669D"/>
</g>
<g style="mix-blend-mode:multiply" filter="url(#filter3_di_33_103)">
<path d="M279.9 198.3C311.767 166.433 363.433 166.433 395.3 198.3L440.695 243.695C447.491 250.491 447.491 261.509 440.695 268.305L395.3 313.7C363.433 345.567 311.767 345.567 279.9 313.7C248.033 281.833 248.033 230.167 279.9 198.3Z" fill="#40E317"/>
</g>
<g style="mix-blend-mode:multiply" filter="url(#filter4_di_33_103)">
<path d="M280.193 313.617C280.193 358.649 243.687 395.155 198.655 395.155L134.506 395.155C124.903 395.155 117.118 387.37 117.118 377.767L117.118 313.617C117.118 268.585 153.623 232.08 198.655 232.08C243.687 232.08 280.193 268.585 280.193 313.617Z" fill="#9374F4"/>
</g>
<g style="mix-blend-mode:multiply" filter="url(#filter5_di_33_103)">
<path d="M232.17 198.564C232.17 153.532 268.676 117.027 313.708 117.027L377.857 117.027C387.461 117.027 395.246 124.812 395.246 134.415L395.246 198.564C395.246 243.596 358.74 280.102 313.708 280.102C268.676 280.102 232.17 243.596 232.17 198.564Z" fill="#FFDB00"/>
</g>
<g style="mix-blend-mode:multiply" filter="url(#filter6_di_33_103)">
<path d="M198.655 280.102C153.623 280.102 117.118 243.596 117.118 198.564L117.118 134.415C117.118 124.812 124.903 117.027 134.506 117.027L198.655 117.027C243.687 117.027 280.193 153.532 280.193 198.564C280.193 243.596 243.687 280.102 198.655 280.102Z" fill="#FE6A36"/>
</g>
<g style="mix-blend-mode:multiply" filter="url(#filter7_di_33_103)">
<path d="M313.709 232.08C358.74 232.08 395.246 268.585 395.246 313.617L395.246 377.767C395.246 387.37 387.461 395.155 377.858 395.155L313.708 395.155C268.677 395.155 232.171 358.649 232.171 313.617C232.171 268.585 268.677 232.08 313.709 232.08Z" fill="#51EAB7"/>
</g>
<g style="mix-blend-mode:color">
<path d="M313.7 279.9C345.567 311.767 345.567 363.433 313.7 395.3L268.305 440.695C261.509 447.491 250.491 447.491 243.695 440.695L198.3 395.3C166.433 363.433 166.433 311.767 198.3 279.9C230.167 248.033 281.833 248.033 313.7 279.9Z" fill="url(#paint0_linear_33_103)" fill-opacity="0.7"/>
</g>
<g style="mix-blend-mode:color">
<path d="M198.3 232.1C166.433 200.233 166.433 148.567 198.3 116.7L243.695 71.3049C250.491 64.5091 261.509 64.5091 268.305 71.3049L313.7 116.7C345.567 148.567 345.567 200.233 313.7 232.1C281.833 263.967 230.167 263.967 198.3 232.1Z" fill="url(#paint1_linear_33_103)" fill-opacity="0.7"/>
</g>
<g style="mix-blend-mode:color">
<path d="M232.1 313.7C200.233 345.567 148.567 345.567 116.7 313.7L71.3049 268.305C64.5091 261.509 64.5091 250.491 71.3049 243.695L116.7 198.3C148.567 166.433 200.233 166.433 232.1 198.3C263.967 230.167 263.967 281.833 232.1 313.7Z" fill="url(#paint2_linear_33_103)" fill-opacity="0.7"/>
</g>
<g style="mix-blend-mode:color">
<path d="M279.9 198.3C311.767 166.433 363.433 166.433 395.3 198.3L440.695 243.695C447.491 250.491 447.491 261.509 440.695 268.305L395.3 313.7C363.433 345.567 311.767 345.567 279.9 313.7C248.033 281.833 248.033 230.167 279.9 198.3Z" fill="url(#paint3_linear_33_103)" fill-opacity="0.7"/>
</g>
<g style="mix-blend-mode:color">
<path d="M280.193 313.617C280.193 358.649 243.687 395.155 198.655 395.155L134.506 395.155C124.903 395.155 117.118 387.37 117.118 377.767L117.118 313.617C117.118 268.585 153.623 232.08 198.655 232.08C243.687 232.08 280.193 268.585 280.193 313.617Z" fill="url(#paint4_linear_33_103)" fill-opacity="0.7"/>
</g>
<g style="mix-blend-mode:color">
<path d="M232.17 198.564C232.17 153.532 268.676 117.027 313.708 117.027L377.857 117.027C387.461 117.027 395.246 124.812 395.246 134.415L395.246 198.564C395.246 243.596 358.74 280.102 313.708 280.102C268.676 280.102 232.17 243.596 232.17 198.564Z" fill="url(#paint5_linear_33_103)" fill-opacity="0.7"/>
</g>
<g style="mix-blend-mode:color">
<path d="M198.655 280.102C153.623 280.102 117.118 243.596 117.118 198.564L117.118 134.415C117.118 124.812 124.903 117.027 134.506 117.027L198.655 117.027C243.687 117.027 280.193 153.532 280.193 198.564C280.193 243.596 243.687 280.102 198.655 280.102Z" fill="url(#paint6_linear_33_103)" fill-opacity="0.7"/>
</g>
<g style="mix-blend-mode:color">
<path d="M313.709 232.08C358.74 232.08 395.246 268.585 395.246 313.617L395.246 377.767C395.246 387.37 387.461 395.155 377.858 395.155L313.708 395.155C268.677 395.155 232.171 358.649 232.171 313.617C232.171 268.585 268.677 232.08 313.709 232.08Z" fill="url(#paint7_linear_33_103)" fill-opacity="0.7"/>
</g>
<rect x="244.177" y="244.085" width="24" height="24" rx="3" fill="white"/>
<rect x="255.97" y="239" width="24" height="24" rx="3" transform="rotate(45 255.97 239)" fill="white"/>
<defs>
<filter id="filter0_di_33_103" x="167.6" y="240" width="176.8" height="218.592" filterUnits="userSpaceOnUse" color-interpolation-filters="sRGB">
<feFlood flood-opacity="0" result="BackgroundImageFix"/>
<feColorMatrix in="SourceAlpha" type="matrix" values="0 0 0 0 0 0 0 0 0 0 0 0 0 0 0 0 0 0 127 0" result="hardAlpha"/>
<feOffset dy="6"/>
<feGaussianBlur stdDeviation="3.4"/>
<feComposite in2="hardAlpha" operator="out"/>
<feColorMatrix type="matrix" values="0 0 0 0 0 0 0 0 0 0 0 0 0 0 0 0 0 0 0.13 0"/>
<feBlend mode="normal" in2="BackgroundImageFix" result="effect1_dropShadow_33_103"/>
<feBlend mode="normal" in="SourceGraphic" in2="effect1_dropShadow_33_103" result="shape"/>
<feColorMatrix in="SourceAlpha" type="matrix" values="0 0 0 0 0 0 0 0 0 0 0 0 0 0 0 0 0 0 127 0" result="hardAlpha"/>
<feOffset dy="-16"/>
<feGaussianBlur stdDeviation="53.35"/>
<feComposite in2="hardAlpha" operator="arithmetic" k2="-1" k3="1"/>
<feColorMatrix type="matrix" values="0 0 0 0 1 0 0 0 0 1 0 0 0 0 1 0 0 0 0.74 0"/>
<feBlend mode="normal" in2="shape" result="effect2_innerShadow_33_103"/>
</filter>
<filter id="filter1_di_33_103" x="167.6" y="50.208" width="176.8" height="218.592" filterUnits="userSpaceOnUse" color-interpolation-filters="sRGB">
<feFlood flood-opacity="0" result="BackgroundImageFix"/>
<feColorMatrix in="SourceAlpha" type="matrix" values="0 0 0 0 0 0 0 0 0 0 0 0 0 0 0 0 0 0 127 0" result="hardAlpha"/>
<feOffset dy="6"/>
<feGaussianBlur stdDeviation="3.4"/>
<feComposite in2="hardAlpha" operator="out"/>
<feColorMatrix type="matrix" values="0 0 0 0 0 0 0 0 0 0 0 0 0 0 0 0 0 0 0.13 0"/>
<feBlend mode="normal" in2="BackgroundImageFix" result="effect1_dropShadow_33_103"/>
<feBlend mode="normal" in="SourceGraphic" in2="effect1_dropShadow_33_103" result="shape"/>
<feColorMatrix in="SourceAlpha" type="matrix" values="0 0 0 0 0 0 0 0 0 0 0 0 0 0 0 0 0 0 127 0" result="hardAlpha"/>
<feOffset dy="-16"/>
<feGaussianBlur stdDeviation="53.35"/>
<feComposite in2="hardAlpha" operator="arithmetic" k2="-1" k3="1"/>
<feColorMatrix type="matrix" values="0 0 0 0 1 0 0 0 0 1 0 0 0 0 1 0 0 0 0.74 0"/>
<feBlend mode="normal" in2="shape" result="effect2_innerShadow_33_103"/>
</filter>
<filter id="filter2_di_33_103" x="59.408" y="158.4" width="203.392" height="192" filterUnits="userSpaceOnUse" color-interpolation-filters="sRGB">
<feFlood flood-opacity="0" result="BackgroundImageFix"/>
<feColorMatrix in="SourceAlpha" type="matrix" values="0 0 0 0 0 0 0 0 0 0 0 0 0 0 0 0 0 0 127 0" result="hardAlpha"/>
<feOffset dy="6"/>
<feGaussianBlur stdDeviation="3.4"/>
<feComposite in2="hardAlpha" operator="out"/>
<feColorMatrix type="matrix" values="0 0 0 0 0 0 0 0 0 0 0 0 0 0 0 0 0 0 0.13 0"/>
<feBlend mode="normal" in2="BackgroundImageFix" result="effect1_dropShadow_33_103"/>
<feBlend mode="normal" in="SourceGraphic" in2="effect1_dropShadow_33_103" result="shape"/>
<feColorMatrix in="SourceAlpha" type="matrix" values="0 0 0 0 0 0 0 0 0 0 0 0 0 0 0 0 0 0 127 0" result="hardAlpha"/>
<feOffset dy="-16"/>
<feGaussianBlur stdDeviation="53.35"/>
<feComposite in2="hardAlpha" operator="arithmetic" k2="-1" k3="1"/>
<feColorMatrix type="matrix" values="0 0 0 0 1 0 0 0 0 1 0 0 0 0 1 0 0 0 0.74 0"/>
<feBlend mode="normal" in2="shape" result="effect2_innerShadow_33_103"/>
</filter>
<filter id="filter3_di_33_103" x="249.2" y="158.4" width="203.392" height="192" filterUnits="userSpaceOnUse" color-interpolation-filters="sRGB">
<feFlood flood-opacity="0" result="BackgroundImageFix"/>
<feColorMatrix in="SourceAlpha" type="matrix" values="0 0 0 0 0 0 0 0 0 0 0 0 0 0 0 0 0 0 127 0" result="hardAlpha"/>
<feOffset dy="6"/>
<feGaussianBlur stdDeviation="3.4"/>
<feComposite in2="hardAlpha" operator="out"/>
<feColorMatrix type="matrix" values="0 0 0 0 0 0 0 0 0 0 0 0 0 0 0 0 0 0 0.13 0"/>
<feBlend mode="normal" in2="BackgroundImageFix" result="effect1_dropShadow_33_103"/>
<feBlend mode="normal" in="SourceGraphic" in2="effect1_dropShadow_33_103" result="shape"/>
<feColorMatrix in="SourceAlpha" type="matrix" values="0 0 0 0 0 0 0 0 0 0 0 0 0 0 0 0 0 0 127 0" result="hardAlpha"/>
<feOffset dy="-16"/>
<feGaussianBlur stdDeviation="53.35"/>
<feComposite in2="hardAlpha" operator="arithmetic" k2="-1" k3="1"/>
<feColorMatrix type="matrix" values="0 0 0 0 1 0 0 0 0 1 0 0 0 0 1 0 0 0 0.74 0"/>
<feBlend mode="normal" in2="shape" result="effect2_innerShadow_33_103"/>
</filter>
<filter id="filter4_di_33_103" x="110.318" y="216.08" width="176.675" height="191.875" filterUnits="userSpaceOnUse" color-interpolation-filters="sRGB">
<feFlood flood-opacity="0" result="BackgroundImageFix"/>
<feColorMatrix in="SourceAlpha" type="matrix" values="0 0 0 0 0 0 0 0 0 0 0 0 0 0 0 0 0 0 127 0" result="hardAlpha"/>
<feOffset dy="6"/>
<feGaussianBlur stdDeviation="3.4"/>
<feComposite in2="hardAlpha" operator="out"/>
<feColorMatrix type="matrix" values="0 0 0 0 0 0 0 0 0 0 0 0 0 0 0 0 0 0 0.13 0"/>
<feBlend mode="normal" in2="BackgroundImageFix" result="effect1_dropShadow_33_103"/>
<feBlend mode="normal" in="SourceGraphic" in2="effect1_dropShadow_33_103" result="shape"/>
<feColorMatrix in="SourceAlpha" type="matrix" values="0 0 0 0 0 0 0 0 0 0 0 0 0 0 0 0 0 0 127 0" result="hardAlpha"/>
<feOffset dy="-16"/>
<feGaussianBlur stdDeviation="53.35"/>
<feComposite in2="hardAlpha" operator="arithmetic" k2="-1" k3="1"/>
<feColorMatrix type="matrix" values="0 0 0 0 1 0 0 0 0 1 0 0 0 0 1 0 0 0 0.74 0"/>
<feBlend mode="normal" in2="shape" result="effect2_innerShadow_33_103"/>
</filter>
<filter id="filter5_di_33_103" x="225.37" y="101.027" width="176.675" height="191.875" filterUnits="userSpaceOnUse" color-interpolation-filters="sRGB">
<feFlood flood-opacity="0" result="BackgroundImageFix"/>
<feColorMatrix in="SourceAlpha" type="matrix" values="0 0 0 0 0 0 0 0 0 0 0 0 0 0 0 0 0 0 127 0" result="hardAlpha"/>
<feOffset dy="6"/>
<feGaussianBlur stdDeviation="3.4"/>
<feComposite in2="hardAlpha" operator="out"/>
<feColorMatrix type="matrix" values="0 0 0 0 0 0 0 0 0 0 0 0 0 0 0 0 0 0 0.13 0"/>
<feBlend mode="normal" in2="BackgroundImageFix" result="effect1_dropShadow_33_103"/>
<feBlend mode="normal" in="SourceGraphic" in2="effect1_dropShadow_33_103" result="shape"/>
<feColorMatrix in="SourceAlpha" type="matrix" values="0 0 0 0 0 0 0 0 0 0 0 0 0 0 0 0 0 0 127 0" result="hardAlpha"/>
<feOffset dy="-16"/>
<feGaussianBlur stdDeviation="53.35"/>
<feComposite in2="hardAlpha" operator="arithmetic" k2="-1" k3="1"/>
<feColorMatrix type="matrix" values="0 0 0 0 1 0 0 0 0 1 0 0 0 0 1 0 0 0 0.74 0"/>
<feBlend mode="normal" in2="shape" result="effect2_innerShadow_33_103"/>
</filter>
<filter id="filter6_di_33_103" x="110.318" y="101.027" width="176.675" height="191.875" filterUnits="userSpaceOnUse" color-interpolation-filters="sRGB">
<feFlood flood-opacity="0" result="BackgroundImageFix"/>
<feColorMatrix in="SourceAlpha" type="matrix" values="0 0 0 0 0 0 0 0 0 0 0 0 0 0 0 0 0 0 127 0" result="hardAlpha"/>
<feOffset dy="6"/>
<feGaussianBlur stdDeviation="3.4"/>
<feComposite in2="hardAlpha" operator="out"/>
<feColorMatrix type="matrix" values="0 0 0 0 0 0 0 0 0 0 0 0 0 0 0 0 0 0 0.13 0"/>
<feBlend mode="normal" in2="BackgroundImageFix" result="effect1_dropShadow_33_103"/>
<feBlend mode="normal" in="SourceGraphic" in2="effect1_dropShadow_33_103" result="shape"/>
<feColorMatrix in="SourceAlpha" type="matrix" values="0 0 0 0 0 0 0 0 0 0 0 0 0 0 0 0 0 0 127 0" result="hardAlpha"/>
<feOffset dy="-16"/>
<feGaussianBlur stdDeviation="53.35"/>
<feComposite in2="hardAlpha" operator="arithmetic" k2="-1" k3="1"/>
<feColorMatrix type="matrix" values="0 0 0 0 1 0 0 0 0 1 0 0 0 0 1 0 0 0 0.74 0"/>
<feBlend mode="normal" in2="shape" result="effect2_innerShadow_33_103"/>
</filter>
<filter id="filter7_di_33_103" x="225.371" y="216.08" width="176.675" height="191.875" filterUnits="userSpaceOnUse" color-interpolation-filters="sRGB">
<feFlood flood-opacity="0" result="BackgroundImageFix"/>
<feColorMatrix in="SourceAlpha" type="matrix" values="0 0 0 0 0 0 0 0 0 0 0 0 0 0 0 0 0 0 127 0" result="hardAlpha"/>
<feOffset dy="6"/>
<feGaussianBlur stdDeviation="3.4"/>
<feComposite in2="hardAlpha" operator="out"/>
<feColorMatrix type="matrix" values="0 0 0 0 0 0 0 0 0 0 0 0 0 0 0 0 0 0 0.13 0"/>
<feBlend mode="normal" in2="BackgroundImageFix" result="effect1_dropShadow_33_103"/>
<feBlend mode="normal" in="SourceGraphic" in2="effect1_dropShadow_33_103" result="shape"/>
<feColorMatrix in="SourceAlpha" type="matrix" values="0 0 0 0 0 0 0 0 0 0 0 0 0 0 0 0 0 0 127 0" result="hardAlpha"/>
<feOffset dy="-16"/>
<feGaussianBlur stdDeviation="53.35"/>
<feComposite in2="hardAlpha" operator="arithmetic" k2="-1" k3="1"/>
<feColorMatrix type="matrix" values="0 0 0 0 1 0 0 0 0 1 0 0 0 0 1 0 0 0 0.74 0"/>
<feBlend mode="normal" in2="shape" result="effect2_innerShadow_33_103"/>
</filter>
<linearGradient id="paint0_linear_33_103" x1="313.7" y1="395.3" x2="198.3" y2="279.9" gradientUnits="userSpaceOnUse">
<stop stop-opacity="0.19"/>
<stop offset="1" stop-opacity="0"/>
</linearGradient>
<linearGradient id="paint1_linear_33_103" x1="198.3" y1="116.7" x2="313.7" y2="232.1" gradientUnits="userSpaceOnUse">
<stop stop-opacity="0.19"/>
<stop offset="1" stop-opacity="0"/>
</linearGradient>
<linearGradient id="paint2_linear_33_103" x1="116.7" y1="313.7" x2="232.1" y2="198.3" gradientUnits="userSpaceOnUse">
<stop stop-opacity="0.19"/>
<stop offset="1" stop-opacity="0"/>
</linearGradient>
<linearGradient id="paint3_linear_33_103" x1="395.3" y1="198.3" x2="279.9" y2="313.7" gradientUnits="userSpaceOnUse">
<stop stop-opacity="0.19"/>
<stop offset="1" stop-opacity="0"/>
</linearGradient>
<linearGradient id="paint4_linear_33_103" x1="198.655" y1="395.155" x2="198.655" y2="232.08" gradientUnits="userSpaceOnUse">
<stop stop-opacity="0.19"/>
<stop offset="1" stop-opacity="0"/>
</linearGradient>
<linearGradient id="paint5_linear_33_103" x1="313.708" y1="117.027" x2="313.708" y2="280.102" gradientUnits="userSpaceOnUse">
<stop stop-opacity="0.19"/>
<stop offset="1" stop-opacity="0"/>
</linearGradient>
<linearGradient id="paint6_linear_33_103" x1="117.118" y1="198.564" x2="280.193" y2="198.564" gradientUnits="userSpaceOnUse">
<stop stop-opacity="0.19"/>
<stop offset="1" stop-opacity="0"/>
</linearGradient>
<linearGradient id="paint7_linear_33_103" x1="395.246" y1="313.617" x2="232.171" y2="313.617" gradientUnits="userSpaceOnUse">
<stop stop-opacity="0.19"/>
<stop offset="1" stop-opacity="0"/>
</linearGradient>
</defs>
</svg>
